# xmcd
#
# Track frame offsets:
#	150
#	10815
#	25947
#	41057
#	60372
#	69665
#	84232
#	99482
#	111415
#	119830
#	134032
#	151602
#	165615
#	178067
#	194317
#
# Disc length: 2792 seconds
#
# Revision: 1
# Processed by: cddbd v1.5.2PL0 Copyright (c) Steve Scherf et al.
# Submitted via: audiograbber 1.83.01
#
DISCID=c90ae60f
DTITLE=The Isaacs - Songs Weve Worn Out Vol 2
DYEAR=1900
DGENRE=Bluegrass
TTITLE0=Star Spangled Banner
TTITLE1=He Ain't Never Done Me Nothin' But Good
TTITLE2=He's Taking Care of Me
TTITLE3=It Is Well (Elisha's Song)
TTITLE4=The Sun Will Never Set Again
TTITLE5=Remind Me Dear Lord
TTITLE6=Thank You
TTITLE7=Prophets Admiration
TTITLE8=Don't You Wanna Go To Heaven
TTITLE9=A Man Without God
TTITLE10=Bridges That You've Burned
TTITLE11=They Don't Know What God Knows
TTITLE12=Honestly
TTITLE13=There Through It All
TTITLE14=Peaceful Waters
EXTD=
EXTT0=
EXTT1=
EXTT2=
EXTT3=
EXTT4=
EXTT5=
EXTT6=
EXTT7=
EXTT8=
EXTT9=
EXTT10=
EXTT11=
EXTT12=
EXTT13=
EXTT14=
PLAYORDER=
